<mxfile host="65bd71144e">
    <diagram id="ycksWWPYX4FbVLcY-3LF" name="Page-1">
        <mxGraphModel dx="627" dy="733" grid="1" gridSize="10" guides="1" tooltips="1" connect="1" arrows="1" fold="1" page="1" pageScale="1" pageWidth="850" pageHeight="1100" math="0" shadow="0">
            <root>
                <mxCell id="0"/>
                <mxCell id="1" parent="0"/>
                <mxCell id="16" value="" style="group" vertex="1" connectable="0" parent="1">
                    <mxGeometry x="930" y="300" width="370" height="270" as="geometry"/>
                </mxCell>
                <mxCell id="17" value="" style="rounded=0;whiteSpace=wrap;html=1;dashed=1;labelBackgroundColor=none;fillColor=none;" vertex="1" parent="16">
                    <mxGeometry width="370.00000000000006" height="270" as="geometry"/>
                </mxCell>
                <mxCell id="18" value="MAS" style="text;html=1;strokeColor=none;fillColor=none;align=center;verticalAlign=middle;whiteSpace=wrap;rounded=0;dashed=1;labelBackgroundColor=none;movable=1;resizable=1;rotatable=1;deletable=1;editable=1;connectable=1;" vertex="1" parent="16">
                    <mxGeometry width="30.833333333333336" height="31.153846153846157" as="geometry"/>
                </mxCell>
                <mxCell id="15" value="Device agent" style="rounded=0;whiteSpace=wrap;html=1;" vertex="1" parent="16">
                    <mxGeometry x="265" y="20" width="80" height="50" as="geometry"/>
                </mxCell>
                <mxCell id="2" style="edgeStyle=none;html=1;entryX=0;entryY=0.5;entryDx=0;entryDy=0;startArrow=classic;startFill=1;endArrow=classic;endFill=1;exitX=0.855;exitY=1;exitDx=0;exitDy=-4.35;exitPerimeter=0;" edge="1" parent="1" source="21" target="7">
                    <mxGeometry relative="1" as="geometry">
                        <mxPoint x="860" y="445" as="sourcePoint"/>
                    </mxGeometry>
                </mxCell>
                <mxCell id="5" style="edgeStyle=none;html=1;exitX=0.75;exitY=0;exitDx=0;exitDy=0;entryX=0;entryY=0.25;entryDx=0;entryDy=0;startArrow=none;startFill=0;endArrow=classic;endFill=1;" edge="1" parent="1" source="7" target="15">
                    <mxGeometry relative="1" as="geometry"/>
                </mxCell>
                <mxCell id="6" value="NewStateMessage&lt;br&gt;TriggerPredictionMessage" style="edgeLabel;html=1;align=center;verticalAlign=middle;resizable=0;points=[];" vertex="1" connectable="0" parent="5">
                    <mxGeometry x="0.2607" y="1" relative="1" as="geometry">
                        <mxPoint x="-59" y="-24" as="offset"/>
                    </mxGeometry>
                </mxCell>
                <mxCell id="7" value="Main agent" style="rounded=0;whiteSpace=wrap;html=1;" vertex="1" parent="1">
                    <mxGeometry x="1040" y="420" width="80" height="50" as="geometry"/>
                </mxCell>
                <mxCell id="8" style="edgeStyle=none;html=1;exitX=1;exitY=0.75;exitDx=0;exitDy=0;entryX=0;entryY=0.25;entryDx=0;entryDy=0;startArrow=none;startFill=0;endArrow=classic;endFill=1;" edge="1" parent="1" source="7" target="12">
                    <mxGeometry relative="1" as="geometry">
                        <mxPoint x="1120" y="545" as="sourcePoint"/>
                    </mxGeometry>
                </mxCell>
                <mxCell id="9" value="PredictionMessage&lt;br&gt;SetDeviceFilterMessage" style="edgeLabel;html=1;align=center;verticalAlign=middle;resizable=0;points=[];" vertex="1" connectable="0" parent="8">
                    <mxGeometry x="-0.3553" y="1" relative="1" as="geometry">
                        <mxPoint x="57" y="-16" as="offset"/>
                    </mxGeometry>
                </mxCell>
                <mxCell id="10" style="edgeStyle=none;html=1;exitX=0;exitY=0.75;exitDx=0;exitDy=0;entryX=0.75;entryY=1;entryDx=0;entryDy=0;startArrow=none;startFill=0;endArrow=classic;endFill=1;" edge="1" parent="1" source="12" target="7">
                    <mxGeometry relative="1" as="geometry">
                        <mxPoint x="1151.0400000000002" y="544.6999999999999" as="targetPoint"/>
                    </mxGeometry>
                </mxCell>
                <mxCell id="11" value="SuccessMessage&lt;br&gt;ActionMessage" style="edgeLabel;html=1;align=center;verticalAlign=middle;resizable=0;points=[];" vertex="1" connectable="0" parent="10">
                    <mxGeometry x="0.2284" y="-2" relative="1" as="geometry">
                        <mxPoint x="-21" y="25" as="offset"/>
                    </mxGeometry>
                </mxCell>
                <mxCell id="12" value="User agent" style="rounded=0;whiteSpace=wrap;html=1;" vertex="1" parent="1">
                    <mxGeometry x="1190" y="475" width="80" height="50" as="geometry"/>
                </mxCell>
                <mxCell id="13" style="edgeStyle=none;html=1;exitX=0;exitY=0.75;exitDx=0;exitDy=0;entryX=1;entryY=0.25;entryDx=0;entryDy=0;startArrow=none;startFill=0;endArrow=classic;endFill=1;" edge="1" parent="1" source="15" target="7">
                    <mxGeometry relative="1" as="geometry"/>
                </mxCell>
                <mxCell id="14" value="PredictionMessage" style="edgeLabel;html=1;align=center;verticalAlign=middle;resizable=0;points=[];" vertex="1" connectable="0" parent="13">
                    <mxGeometry x="-0.1452" y="2" relative="1" as="geometry">
                        <mxPoint x="46" y="9" as="offset"/>
                    </mxGeometry>
                </mxCell>
                <mxCell id="52" style="edgeStyle=none;html=1;startArrow=none;startFill=0;endArrow=classic;endFill=1;entryX=0;entryY=0;entryDx=0;entryDy=52.5;entryPerimeter=0;" edge="1" parent="1" target="21">
                    <mxGeometry relative="1" as="geometry">
                        <mxPoint x="620" y="230" as="targetPoint"/>
                        <mxPoint x="600" y="250" as="sourcePoint"/>
                    </mxGeometry>
                </mxCell>
                <mxCell id="53" value="Potential other outside system" style="edgeLabel;html=1;align=center;verticalAlign=middle;resizable=0;points=[];" vertex="1" connectable="0" parent="52">
                    <mxGeometry x="-0.7131" relative="1" as="geometry">
                        <mxPoint x="-42" y="-10" as="offset"/>
                    </mxGeometry>
                </mxCell>
                <mxCell id="21" value="XMPP&lt;br&gt;server" style="shape=cylinder3;whiteSpace=wrap;html=1;boundedLbl=1;backgroundOutline=1;size=15;" vertex="1" parent="1">
                    <mxGeometry x="750" y="200" width="60" height="80" as="geometry"/>
                </mxCell>
                <mxCell id="22" value="" style="group" vertex="1" connectable="0" parent="1">
                    <mxGeometry x="260" y="300" width="370" height="270" as="geometry"/>
                </mxCell>
                <mxCell id="23" value="" style="rounded=0;whiteSpace=wrap;html=1;dashed=1;labelBackgroundColor=none;fillColor=none;" vertex="1" parent="22">
                    <mxGeometry width="370.00000000000006" height="270" as="geometry"/>
                </mxCell>
                <mxCell id="24" value="Some smart home management system" style="text;html=1;strokeColor=none;fillColor=none;align=center;verticalAlign=middle;whiteSpace=wrap;rounded=0;dashed=1;labelBackgroundColor=none;movable=1;resizable=1;rotatable=1;deletable=1;editable=1;connectable=1;" vertex="1" parent="22">
                    <mxGeometry width="220" height="30" as="geometry"/>
                </mxCell>
                <mxCell id="25" value="MAS Interface" style="rounded=0;whiteSpace=wrap;html=1;" vertex="1" parent="22">
                    <mxGeometry x="270" y="30" width="90" height="190" as="geometry"/>
                </mxCell>
                <mxCell id="26" value="" style="endArrow=classic;html=1;entryX=-0.017;entryY=0.073;entryDx=0;entryDy=0;entryPerimeter=0;exitX=0.486;exitY=0.162;exitDx=0;exitDy=0;exitPerimeter=0;" edge="1" parent="22" source="23" target="25">
                    <mxGeometry width="50" height="50" relative="1" as="geometry">
                        <mxPoint x="210" y="90" as="sourcePoint"/>
                        <mxPoint x="260" y="40" as="targetPoint"/>
                    </mxGeometry>
                </mxCell>
                <mxCell id="27" value="start()" style="edgeLabel;html=1;align=center;verticalAlign=middle;resizable=0;points=[];" vertex="1" connectable="0" parent="26">
                    <mxGeometry x="-0.5242" relative="1" as="geometry">
                        <mxPoint x="39" y="-14" as="offset"/>
                    </mxGeometry>
                </mxCell>
                <mxCell id="30" value="" style="endArrow=classic;html=1;entryX=-0.011;entryY=0.208;entryDx=0;entryDy=0;entryPerimeter=0;exitX=0.486;exitY=0.162;exitDx=0;exitDy=0;exitPerimeter=0;" edge="1" parent="22" target="25">
                    <mxGeometry width="50" height="50" relative="1" as="geometry">
                        <mxPoint x="181.3499999999999" y="70" as="sourcePoint"/>
                        <mxPoint x="269.9999999999998" y="70.13" as="targetPoint"/>
                    </mxGeometry>
                </mxCell>
                <mxCell id="31" value="add_user()" style="edgeLabel;html=1;align=center;verticalAlign=middle;resizable=0;points=[];" vertex="1" connectable="0" parent="30">
                    <mxGeometry x="-0.5242" relative="1" as="geometry">
                        <mxPoint x="28" y="-15" as="offset"/>
                    </mxGeometry>
                </mxCell>
                <mxCell id="32" value="" style="endArrow=classic;html=1;entryX=0.004;entryY=0.313;entryDx=0;entryDy=0;entryPerimeter=0;" edge="1" parent="22" target="25">
                    <mxGeometry width="50" height="50" relative="1" as="geometry">
                        <mxPoint x="180" y="90" as="sourcePoint"/>
                        <mxPoint x="269.9999999999998" y="100.13" as="targetPoint"/>
                    </mxGeometry>
                </mxCell>
                <mxCell id="33" value="user_set_device_filter()" style="edgeLabel;html=1;align=center;verticalAlign=middle;resizable=0;points=[];" vertex="1" connectable="0" parent="32">
                    <mxGeometry x="-0.5242" relative="1" as="geometry">
                        <mxPoint x="-2" y="-10" as="offset"/>
                    </mxGeometry>
                </mxCell>
                <mxCell id="34" value="" style="endArrow=classic;html=1;entryX=-0.017;entryY=0.073;entryDx=0;entryDy=0;entryPerimeter=0;exitX=0.486;exitY=0.162;exitDx=0;exitDy=0;exitPerimeter=0;" edge="1" parent="22">
                    <mxGeometry width="50" height="50" relative="1" as="geometry">
                        <mxPoint x="181.3499999999999" y="110" as="sourcePoint"/>
                        <mxPoint x="269.9999999999998" y="110.13" as="targetPoint"/>
                    </mxGeometry>
                </mxCell>
                <mxCell id="35" value="update_state()" style="edgeLabel;html=1;align=center;verticalAlign=middle;resizable=0;points=[];" vertex="1" connectable="0" parent="34">
                    <mxGeometry x="-0.5242" relative="1" as="geometry">
                        <mxPoint x="18" y="-10" as="offset"/>
                    </mxGeometry>
                </mxCell>
                <mxCell id="36" value="" style="endArrow=classic;html=1;entryX=-0.017;entryY=0.073;entryDx=0;entryDy=0;entryPerimeter=0;exitX=0.486;exitY=0.162;exitDx=0;exitDy=0;exitPerimeter=0;" edge="1" parent="22">
                    <mxGeometry width="50" height="50" relative="1" as="geometry">
                        <mxPoint x="181.3499999999999" y="134.71000000000004" as="sourcePoint"/>
                        <mxPoint x="269.9999999999998" y="134.84000000000003" as="targetPoint"/>
                    </mxGeometry>
                </mxCell>
                <mxCell id="37" value="trigger_predictions()" style="edgeLabel;html=1;align=center;verticalAlign=middle;resizable=0;points=[];" vertex="1" connectable="0" parent="36">
                    <mxGeometry x="-0.5242" relative="1" as="geometry">
                        <mxPoint x="8" y="-10" as="offset"/>
                    </mxGeometry>
                </mxCell>
                <mxCell id="38" value="" style="endArrow=classic;html=1;entryX=-0.017;entryY=0.073;entryDx=0;entryDy=0;entryPerimeter=0;exitX=0.486;exitY=0.162;exitDx=0;exitDy=0;exitPerimeter=0;" edge="1" parent="22">
                    <mxGeometry width="50" height="50" relative="1" as="geometry">
                        <mxPoint x="181.3499999999999" y="160" as="sourcePoint"/>
                        <mxPoint x="269.9999999999998" y="160.13" as="targetPoint"/>
                    </mxGeometry>
                </mxCell>
                <mxCell id="39" value="send_stop_message()" style="edgeLabel;html=1;align=center;verticalAlign=middle;resizable=0;points=[];" vertex="1" connectable="0" parent="38">
                    <mxGeometry x="-0.5242" relative="1" as="geometry">
                        <mxPoint x="-2" y="-15" as="offset"/>
                    </mxGeometry>
                </mxCell>
                <mxCell id="40" value="" style="endArrow=classic;html=1;entryX=-0.017;entryY=0.073;entryDx=0;entryDy=0;entryPerimeter=0;exitX=0.486;exitY=0.162;exitDx=0;exitDy=0;exitPerimeter=0;" edge="1" parent="22">
                    <mxGeometry width="50" height="50" relative="1" as="geometry">
                        <mxPoint x="181.3499999999999" y="180" as="sourcePoint"/>
                        <mxPoint x="269.9999999999998" y="180.13" as="targetPoint"/>
                    </mxGeometry>
                </mxCell>
                <mxCell id="41" value="stop()" style="edgeLabel;html=1;align=center;verticalAlign=middle;resizable=0;points=[];" vertex="1" connectable="0" parent="40">
                    <mxGeometry x="-0.5242" relative="1" as="geometry">
                        <mxPoint x="38" y="-10" as="offset"/>
                    </mxGeometry>
                </mxCell>
                <mxCell id="42" style="edgeStyle=none;html=1;exitX=1;exitY=0.5;exitDx=0;exitDy=0;entryX=0.145;entryY=1;entryDx=0;entryDy=-4.35;entryPerimeter=0;startArrow=classic;startFill=1;" edge="1" parent="1" source="25" target="21">
                    <mxGeometry relative="1" as="geometry"/>
                </mxCell>
                <mxCell id="43" style="edgeStyle=none;html=1;startArrow=none;startFill=0;" edge="1" parent="1">
                    <mxGeometry relative="1" as="geometry">
                        <mxPoint x="675" y="10" as="sourcePoint"/>
                        <mxPoint x="860" y="10" as="targetPoint"/>
                    </mxGeometry>
                </mxCell>
                <mxCell id="44" value="StopMessage&lt;br&gt;NewStateMessage&lt;br&gt;AddNewUserAgentMessage&lt;br&gt;SetDeviceFilterMessage&lt;br&gt;AddNewDeviceAgentMessage&lt;br&gt;TriggerPredictionMessage" style="text;html=1;align=left;verticalAlign=middle;resizable=0;points=[];autosize=1;strokeColor=none;fillColor=none;" vertex="1" parent="1">
                    <mxGeometry x="685" y="10" width="190" height="100" as="geometry"/>
                </mxCell>
                <mxCell id="47" style="edgeStyle=none;html=1;startArrow=classic;startFill=1;endArrow=none;endFill=0;" edge="1" parent="1">
                    <mxGeometry relative="1" as="geometry">
                        <mxPoint x="675" y="120" as="sourcePoint"/>
                        <mxPoint x="860" y="120" as="targetPoint"/>
                    </mxGeometry>
                </mxCell>
                <mxCell id="48" value="SuccessMessage&lt;br&gt;ErrorMessage&lt;br&gt;AgentReadyMessage&lt;br&gt;ActionMessage" style="text;html=1;align=left;verticalAlign=middle;resizable=0;points=[];autosize=1;strokeColor=none;fillColor=none;" vertex="1" parent="1">
                    <mxGeometry x="685" y="120" width="140" height="70" as="geometry"/>
                </mxCell>
                <mxCell id="50" style="edgeStyle=none;html=1;exitX=0.5;exitY=1;exitDx=0;exitDy=0;entryX=0.5;entryY=1;entryDx=0;entryDy=0;startArrow=none;startFill=0;endArrow=classic;endFill=1;" edge="1" parent="1" source="25" target="17">
                    <mxGeometry relative="1" as="geometry">
                        <Array as="points">
                            <mxPoint x="575" y="620"/>
                            <mxPoint x="1115" y="620"/>
                        </Array>
                    </mxGeometry>
                </mxCell>
                <mxCell id="51" value="Starts as subprocess" style="edgeLabel;html=1;align=center;verticalAlign=middle;resizable=0;points=[];" vertex="1" connectable="0" parent="50">
                    <mxGeometry x="-0.0048" y="-3" relative="1" as="geometry">
                        <mxPoint x="-8" y="-13" as="offset"/>
                    </mxGeometry>
                </mxCell>
            </root>
        </mxGraphModel>
    </diagram>
</mxfile>